<svg width="177" height="80" viewBox="0 0 177 80" fill="none" xmlns="http://www.w3.org/2000/svg">
<path d="M21.564 8.612V35H19.044V22.472H5.22V35H2.664V8.612H5.22V20.024H19.044L19.008 8.612H21.564ZM26.2747 8.612H28.8667L34.8067 22.58L36.0307 25.568L37.2547 22.58L43.1587 8.612H45.7507L37.4347 27.8C36.2107 30.656 35.0707 32.648 34.0147 33.776C32.9827 34.904 31.6867 35.468 30.1267 35.468C29.1187 35.468 28.2427 35.264 27.4987 34.856L28.2547 32.66C28.8547 32.9 29.3707 33.02 29.8027 33.02C30.8107 33.02 31.6747 32.684 32.3947 32.012C33.1147 31.316 33.8707 29.948 34.6627 27.908L26.2747 8.612ZM63.9045 8.612H66.2445V35H63.9045V8.612ZM49.9725 35L59.0805 21.212L50.6925 8.612H53.5365L61.5645 21.212L52.8165 35H49.9725ZM68.5485 21.212L76.6125 8.612H79.4205L71.0685 21.212L80.1405 35H77.3325L68.5485 21.212ZM103.865 8.612V35H101.345V22.472H87.5208V35H84.9648V8.612H87.5208V20.024H101.345L101.309 8.612H103.865ZM129.599 13.76C127.439 11.696 124.847 10.664 121.823 10.664C118.799 10.664 116.195 11.696 114.011 13.76C111.851 15.8 110.771 18.488 110.771 21.824C110.771 25.04 111.827 27.692 113.939 29.78C116.051 31.844 118.679 32.876 121.823 32.876C124.967 32.876 127.595 31.844 129.707 29.78C131.819 27.692 132.875 25.04 132.875 21.824C132.875 18.488 131.783 15.8 129.599 13.76ZM108.251 21.788C108.251 17.876 109.535 14.624 112.103 12.032C114.695 9.44 117.935 8.144 121.823 8.144C125.711 8.144 128.939 9.44 131.507 12.032C134.099 14.624 135.395 17.876 135.395 21.788C135.395 25.724 134.135 28.988 131.615 31.58C129.095 34.172 125.831 35.468 121.823 35.468C117.815 35.468 114.551 34.172 112.031 31.58C109.511 28.988 108.251 25.724 108.251 21.788ZM21.564 51.612V78H19.044V65.472H5.22V78H2.664V51.612H5.22V63.024H19.044L19.008 51.612H21.564ZM46.1107 51.612L46.0747 78H43.6267V56.58L43.6627 55.104L29.9467 78H26.7427V51.612H29.1907V73.032L29.1187 74.544L42.9427 51.612H46.1107ZM64.7131 51.612H67.0531V78H64.7131V51.612ZM50.7811 78L59.8891 64.212L51.5011 51.612H54.3451L62.3731 64.212L53.6251 78H50.7811ZM69.3571 64.212L77.4211 51.612H80.2291L71.8771 64.212L80.9491 78H78.1411L69.3571 64.212ZM104.673 51.612V78H102.153V65.472H88.3294V78H85.7734V51.612H88.3294V63.024H102.153L102.117 51.612H104.673ZM129.22 51.612L129.184 78H126.736V56.58L126.772 55.104L113.056 78H109.852V51.612H112.3V73.032L112.228 74.544L126.052 51.612H129.22ZM153.618 51.612L153.582 78H151.134V56.58L151.17 55.104L137.454 78H134.25V51.612H136.698V73.032L136.626 74.544L150.45 51.612H153.618ZM137.634 43.944H139.866C139.866 45 140.166 45.852 140.766 46.5C141.366 47.148 142.242 47.472 143.394 47.472C144.546 47.472 145.422 47.148 146.022 46.5C146.622 45.852 146.922 45 146.922 43.944H149.154C149.154 45.576 148.638 46.884 147.606 47.868C146.574 48.828 145.17 49.308 143.394 49.308C141.618 49.308 140.214 48.828 139.182 47.868C138.15 46.884 137.634 45.576 137.634 43.944Z" fill="#515050"/>
<path d="M175.6 14.5242H175.444C176.237 13.7711 176.737 12.9509 176.934 12.0755C177.102 11.3316 176.948 10.6097 176.489 9.9863C176.456 9.91191 176.349 9.53905 176.659 8.21338C176.764 7.76001 176.617 7.29319 176.264 6.96515C175.879 6.60575 175.315 6.47523 174.789 6.62839C174.276 6.77716 173.898 7.17312 173.803 7.66125C173.671 8.33171 173.653 9.09961 173.733 9.75268C173.697 9.73657 173.661 9.72092 173.624 9.70567C173.197 9.52687 172.702 9.56342 172.304 9.80443C171.895 10.0511 171.651 10.4684 171.651 10.95C171.651 11.412 171.914 11.8384 172.353 12.0903C172.583 12.2217 172.882 12.4471 173.203 12.7286C172.55 13.2794 171.643 13.8715 170.6 14.4262C170.376 14.5454 170.087 14.6229 169.81 14.6886C169.73 14.7077 169.634 14.7356 169.533 14.7674V11.9137C169.533 11.6736 169.325 11.4786 169.067 11.4786C168.359 11.4786 167.945 11.8637 167.581 12.2583C166.561 13.3669 166.721 15.6062 166.874 16.7018C166.33 17.3183 165.611 18.2045 165.053 18.9133C164.706 18.9507 164.403 19.0155 164.153 19.1086C163.435 19.3762 162.565 19.3762 161.847 19.1086C161.6 19.0168 161.302 18.952 160.96 18.9145C160.395 18.2041 159.669 17.316 159.126 16.7013C159.279 15.6058 159.439 13.3669 158.419 12.2579C158.055 11.8637 157.641 11.4786 156.933 11.4786C156.675 11.4786 156.467 11.6736 156.467 11.9137V14.7674C156.366 14.7356 156.27 14.7078 156.19 14.6886C155.912 14.6229 155.624 14.5455 155.4 14.4262C154.357 13.8715 153.45 13.2794 152.797 12.7286C153.118 12.4471 153.417 12.2217 153.647 12.0903C154.086 11.8384 154.349 11.4121 154.349 10.9208C154.349 10.4683 154.105 10.0511 153.696 9.80438C153.297 9.56337 152.804 9.52682 152.375 9.70562C152.339 9.72087 152.303 9.73652 152.267 9.75263C152.347 9.09956 152.329 8.33166 152.197 7.6612C152.102 7.17307 151.724 6.77711 151.211 6.62834C150.685 6.47518 150.121 6.6057 149.736 6.96464C149.383 7.29319 149.236 7.76001 149.341 8.21338C149.651 9.53905 149.544 9.91191 149.511 9.9863C149.052 10.6097 148.898 11.3316 149.066 12.0755C149.263 12.9509 149.763 13.771 150.556 14.5242H150.4C149.628 14.5242 149 15.1098 149 15.8294C149 16.549 149.628 17.1346 150.4 17.1346L155.498 17.1333C155.503 17.1338 155.61 17.1398 155.665 17.1516C156.214 17.2812 157.507 18.5786 158.665 20.1475C158.514 20.4769 158.417 20.8606 158.37 21.2927C157.551 20.3198 156.397 19.6455 155.118 19.434C154.363 19.3092 153.548 19.2787 152.695 19.3435C152.527 19.3561 152.379 19.4531 152.309 19.5963C152.239 19.7394 152.257 19.907 152.357 20.0344C152.364 20.044 153.11 20.9994 153.475 21.9588C153.971 23.264 154.979 24.2534 156.237 24.6733C156.873 24.8856 157.894 24.9813 158.735 24.9813C158.873 24.9813 159.003 24.9778 159.129 24.9726C159.148 25.0061 159.164 25.04 159.184 25.0735C159.645 25.8654 160.193 27.0127 160.2 27.9925C160.18 28.2178 160.077 29.7667 161.012 30.7326C161.183 30.9097 161.385 31.0445 161.6 31.1602V24.531C161.6 23.1013 160.354 21.9318 158.821 21.9218C158.819 21.9183 158.817 21.9153 158.814 21.9118L158.819 21.0512C160.867 21.0608 162.533 22.6218 162.533 24.531V31.4548C162.684 31.4744 162.836 31.4922 163 31.4922C163.164 31.4922 163.316 31.4744 163.467 31.4548V24.531C163.467 22.6227 165.132 21.0616 167.179 21.0512L167.185 21.913C167.183 21.9161 167.181 21.9187 167.18 21.9218C165.646 21.9322 164.4 23.1013 164.4 24.5309V31.1601C164.615 31.0444 164.817 30.9096 164.988 30.7325C165.923 29.7666 165.82 28.2177 165.8 27.9924C165.807 27.0126 166.355 25.8653 166.816 25.0734C166.835 25.0399 166.852 25.006 166.87 24.9725C166.996 24.9777 167.127 24.9812 167.265 24.9812C168.106 24.9812 169.127 24.8855 169.763 24.6732C171.021 24.2533 172.028 23.264 172.525 21.9587C172.89 20.9993 173.635 20.0439 173.643 20.0343C173.743 19.9069 173.761 19.7393 173.691 19.5962C173.621 19.4531 173.473 19.3561 173.305 19.3434C172.453 19.2786 171.637 19.3091 170.882 19.4339C169.601 19.6458 168.447 20.3215 167.628 21.2961C167.581 20.8732 167.48 20.5029 167.334 20.1779C168.477 18.5968 169.772 17.2846 170.333 17.152C170.382 17.1415 170.472 17.1346 170.472 17.1346H175.6C176.372 17.1346 177 16.549 177 15.8293C177 15.1097 176.372 14.5242 175.6 14.5242ZM156.551 23.854C155.558 23.5229 154.757 22.7258 154.355 21.6677C154.144 21.116 153.833 20.5792 153.575 20.1802C154.056 20.1815 154.518 20.218 154.955 20.2907C156.318 20.516 157.518 21.3819 158.166 22.6057L158.31 22.879L156.707 21.9827C156.486 21.8582 156.2 21.9257 156.067 22.1315C155.934 22.3377 156.006 22.6048 156.227 22.7284L158.56 24.0336C158.592 24.0519 158.626 24.0637 158.661 24.0737L158.671 24.1111C157.874 24.1063 157.007 24.0063 156.551 23.854ZM159.841 19.0011C159.809 19.012 159.781 19.0298 159.749 19.0425C159.66 19.079 159.572 19.1168 159.491 19.1656C159.449 19.1904 159.414 19.2221 159.375 19.25C159.322 19.2883 159.264 19.3218 159.217 19.3657C158.474 18.3946 156.953 16.5581 155.894 16.308C155.79 16.2832 155.568 16.2658 155.533 16.2645H150.4C150.143 16.2645 149.934 16.0692 149.934 15.8294C149.934 15.5897 150.143 15.3944 150.4 15.3944H151.8C152.001 15.3944 152.179 15.2747 152.243 15.0972C152.307 14.9202 152.241 14.7244 152.081 14.6117C150.89 13.7755 150.203 12.8871 149.979 11.8964C149.862 11.3765 149.968 10.8922 150.295 10.4589C150.305 10.4454 150.314 10.4319 150.322 10.418C150.486 10.1417 150.625 9.62048 150.254 8.02896C150.215 7.86627 150.269 7.69919 150.396 7.58085C150.538 7.44773 150.739 7.40245 150.934 7.45904C151.021 7.48469 151.231 7.57086 151.279 7.81752C151.48 8.8408 151.362 10.0443 151.13 10.4841C151.034 10.6664 151.086 10.8865 151.256 11.0141C151.425 11.1424 151.667 11.1433 151.838 11.018C152.115 10.8144 152.433 10.6355 152.757 10.4998C152.957 10.4167 153.125 10.4968 153.189 10.5346C153.331 10.6204 153.416 10.7648 153.416 10.9501C153.416 11.1076 153.32 11.2564 153.158 11.3491C152.65 11.6402 152.085 12.1496 151.794 12.4281C151.616 12.5969 151.616 12.8662 151.793 13.0359C152.511 13.7233 153.628 14.4856 154.938 15.1825C155.259 15.3531 155.619 15.4514 155.961 15.5324C156.167 15.5811 156.607 15.7403 156.759 15.7977C156.903 15.8521 157.066 15.836 157.194 15.7551C157.323 15.6742 157.4 15.5393 157.4 15.3944V12.5225C157.494 12.5969 157.592 12.6965 157.711 12.8249C158.393 13.5662 158.397 15.3483 158.174 16.7693C158.154 16.8919 158.193 17.0168 158.278 17.1121C158.717 17.599 159.323 18.3294 159.859 18.9934C159.852 18.9954 159.847 18.9989 159.841 19.0011ZM167.34 24.0737C167.374 24.0637 167.408 24.0519 167.44 24.0336L169.774 22.7284C169.994 22.6048 170.066 22.3377 169.933 22.1315C169.801 21.9257 169.515 21.8582 169.293 21.9827L167.69 22.879L167.835 22.6057C168.482 21.3819 169.682 20.516 171.045 20.2907C171.483 20.218 171.944 20.1815 172.425 20.1802C172.167 20.5792 171.856 21.116 171.645 21.6677C171.243 22.7258 170.442 23.5229 169.449 23.854C168.993 24.0063 168.126 24.1063 167.329 24.1111L167.34 24.0737ZM175.6 16.2645L170.432 16.2658C170.432 16.2658 170.21 16.2832 170.105 16.3084C169.037 16.5607 167.508 18.4333 166.793 19.3779L166.791 19.3766C166.706 19.3 166.612 19.2334 166.513 19.1738C166.5 19.1655 166.487 19.1573 166.474 19.1494C166.376 19.0929 166.272 19.0455 166.164 19.0063C166.158 19.0041 166.152 19.0006 166.146 18.9985C166.677 18.3341 167.28 17.6019 167.722 17.1119C167.808 17.0166 167.846 16.8918 167.826 16.7691C167.603 15.3481 167.607 13.5661 168.29 12.8251C168.408 12.6968 168.507 12.5967 168.6 12.5223V15.3943C168.6 15.5392 168.677 15.674 168.806 15.755C168.935 15.8359 169.097 15.8515 169.242 15.7976C169.393 15.7402 169.833 15.5809 170.04 15.5322C170.381 15.4513 170.741 15.3529 171.062 15.1824C172.372 14.4854 173.489 13.7231 174.207 13.0357C174.384 12.8661 174.384 12.5968 174.206 12.4279C173.915 12.1495 173.35 11.64 172.842 11.3489C172.68 11.2562 172.584 11.1075 172.584 10.9208C172.584 10.7646 172.669 10.6202 172.811 10.5344C172.875 10.4966 173.044 10.4174 173.243 10.4996C173.567 10.6353 173.885 10.8142 174.163 11.0178C174.333 11.1427 174.575 11.1418 174.744 11.0139C174.914 10.8864 174.966 10.6662 174.87 10.4839C174.638 10.0441 174.52 8.84065 174.721 7.81732C174.769 7.57065 174.979 7.48449 175.066 7.45884C175.261 7.4023 175.461 7.44752 175.605 7.5811C175.731 7.69903 175.785 7.86606 175.746 8.02835C175.375 9.62032 175.514 10.1415 175.678 10.4178C175.686 10.4317 175.695 10.4452 175.705 10.4587C176.032 10.892 176.138 11.3763 176.021 11.8962C175.797 12.8868 175.11 13.7752 173.919 14.6115C173.759 14.7242 173.694 14.92 173.757 15.097C173.821 15.2746 173.999 15.3942 174.2 15.3942H175.6C175.857 15.3942 176.066 15.5895 176.066 15.8292C176.067 16.0691 175.857 16.2645 175.6 16.2645Z" fill="#FD6B38"/>
</svg>
